<svg id="图层_1" data-name="图层 1" xmlns="http://www.w3.org/2000/svg" viewBox="0 0 141 35"><defs><style>.cls-1{fill:#366db0;}.cls-2{fill:#5ebeca;}</style></defs><path class="cls-1" d="M140.66,29.86,134.46,21A8.52,8.52,0,0,0,130.9,4.74H119a2.56,2.56,0,0,0-2.56,2.55V30a.26.26,0,0,0,.26.25H121a.25.25,0,0,0,.25-.25V9h9.14a4.24,4.24,0,1,1,0,8.48h-6.74a.25.25,0,0,0-.25.26v3.77a.26.26,0,0,0,.25.26h3.58a3.89,3.89,0,0,1,3.07,1.64l4.63,6.62a.51.51,0,0,0,.42.21h5.1A.25.25,0,0,0,140.66,29.86Z"/><path class="cls-1" d="M113.88,29.9,103.17,7A3.82,3.82,0,0,0,99.7,4.74H97.46A3.82,3.82,0,0,0,94,7l-3.75,8a.26.26,0,0,0,.23.37H95a.51.51,0,0,0,.46-.3l2.71-5.8A.42.42,0,0,1,98.58,9h0a.44.44,0,0,1,.38.24l3.84,8.24H91.51A3.82,3.82,0,0,0,88,19.71L83.29,29.9a.25.25,0,0,0,.23.36h4.57a.5.5,0,0,0,.46-.29l3.51-7.53a1.13,1.13,0,0,1,1-.65h11a1.12,1.12,0,0,1,1,.65L108.61,30a.52.52,0,0,0,.46.29h4.57A.26.26,0,0,0,113.88,29.9Z"/><path class="cls-1" d="M83,17.5H66.36V11.58A2.56,2.56,0,0,1,68.92,9H82.36a.5.5,0,0,0,.46-.29l1.7-3.63a.25.25,0,0,0-.23-.36H68a6.38,6.38,0,0,0-6.39,6.38V30a.26.26,0,0,0,.26.25h4.29a.25.25,0,0,0,.25-.25V21.79H81.08a.53.53,0,0,0,.47-.3l1.69-3.63A.25.25,0,0,0,83,17.5Z"/><path class="cls-1" d="M18.37,15.36H8.26A3.17,3.17,0,0,1,8.26,9H21.12a.52.52,0,0,0,.46-.29L23.27,5.1A.25.25,0,0,0,23,4.74H7.75a7.45,7.45,0,1,0,0,14.9H17.86a3.17,3.17,0,0,1,0,6.34H3.39a.52.52,0,0,0-.47.29L1.23,29.9a.25.25,0,0,0,.23.36H18.37a7.45,7.45,0,0,0,0-14.9Z"/><rect class="cls-2" x="48.55" y="4.73" width="7.66" height="7.66" rx="1.28"/><path class="cls-1" d="M56.13,14.53H51.81a.25.25,0,0,0-.25.27,38,38,0,0,1-.1,6.66A5.12,5.12,0,0,1,46.87,26a42.21,42.21,0,0,1-8.41,0,5.11,5.11,0,0,1-4.59-4.57,37.35,37.35,0,0,1,0-7.91A5.09,5.09,0,0,1,38.42,9a41.37,41.37,0,0,1,7.71-.06.26.26,0,0,0,.28-.25V4.84a.26.26,0,0,0-.25-.26,66.39,66.39,0,0,0-9,.13,8.88,8.88,0,0,0-8.07,8.11,56.14,56.14,0,0,0,0,9.35,8.94,8.94,0,0,0,8.2,8.13,67.14,67.14,0,0,0,10.8,0,8.91,8.91,0,0,0,8.2-8.06,54.62,54.62,0,0,0,.13-7.46A.26.26,0,0,0,56.13,14.53Z"/></svg>